<?xml version="1.0" encoding="UTF-8" standalone="no"?>
<!-- Created with Inkscape (http://www.inkscape.org/) -->

<svg
   xmlns:dc="http://purl.org/dc/elements/1.1/"
   xmlns:cc="http://creativecommons.org/ns#"
   xmlns:rdf="http://www.w3.org/1999/02/22-rdf-syntax-ns#"
   xmlns:svg="http://www.w3.org/2000/svg"
   xmlns="http://www.w3.org/2000/svg"
   xmlns:sodipodi="http://sodipodi.sourceforge.net/DTD/sodipodi-0.dtd"
   xmlns:inkscape="http://www.inkscape.org/namespaces/inkscape"
   width="210mm"
   height="297mm"
   viewBox="0 0 210 297"
   version="1.1"
   id="svg4398"
   inkscape:version="0.92.2 (5c3e80d, 2017-08-06)"
   sodipodi:docname="logos.svg">
  <defs
     id="defs4392" />
  <sodipodi:namedview
     id="base"
     pagecolor="#ffffff"
     bordercolor="#666666"
     borderopacity="1.0"
     inkscape:pageopacity="0.0"
     inkscape:pageshadow="2"
     inkscape:zoom="0.175"
     inkscape:cx="297.14671"
     inkscape:cy="451.56272"
     inkscape:document-units="mm"
     inkscape:current-layer="layer1"
     showgrid="false"
     showborder="false"
     inkscape:window-width="1920"
     inkscape:window-height="986"
     inkscape:window-x="-11"
     inkscape:window-y="-11"
     inkscape:window-maximized="1" />
  <metadata
     id="metadata4395">
    <rdf:RDF>
      <cc:Work
         rdf:about="">
        <dc:format>image/svg+xml</dc:format>
        <dc:type
           rdf:resource="http://purl.org/dc/dcmitype/StillImage" />
        <dc:title></dc:title>
      </cc:Work>
    </rdf:RDF>
  </metadata>
  <g
     inkscape:label="Capa 1"
     inkscape:groupmode="layer"
     id="layer1">
    <path
       sodipodi:nodetypes="cccccccccccc"
       inkscape:connector-curvature="0"
       id="path4203"
       d="m 182.01369,-113.02651 73.47598,-127.2668 122.06102,32.7068 92.235,92.2369 -23.97631,-6.4246 -72.80971,-72.8111 -102.2917,102.294004 -66.11048,-14.683804 V 7.8940938 L 324.55288,40.036794 445.64598,7.5892938 V -14.693606"
       style="opacity:1;vector-effect:none;fill:none;fill-opacity:1;stroke:#c8ced3;stroke-width:5;stroke-linecap:round;stroke-linejoin:round;stroke-miterlimit:4;stroke-dasharray:none;stroke-dashoffset:0;stroke-opacity:1;paint-order:stroke fill markers"
       inkscape:export-xdpi="177.95041"
       inkscape:export-ydpi="177.95041"
       inkscape:export-filename="C:\Users\Jorge\Desktop\logos\logo 3.png" />
    <path
       inkscape:connector-curvature="0"
       id="path4205"
       d="M 445.3842,-31.054106 V -107.78321"
       style="opacity:1;vector-effect:none;fill:none;fill-opacity:1;stroke:#c8ced3;stroke-width:5;stroke-linecap:round;stroke-linejoin:miter;stroke-miterlimit:4;stroke-dasharray:none;stroke-dashoffset:0;stroke-opacity:1;paint-order:markers fill stroke"
       inkscape:export-xdpi="177.95041"
       inkscape:export-ydpi="177.95041"
       inkscape:export-filename="C:\Users\Jorge\Desktop\logos\logo 3.png" />
    <path
       style="opacity:1;vector-effect:none;fill:none;fill-opacity:1;stroke:#c8ced3;stroke-width:5;stroke-linecap:round;stroke-linejoin:miter;stroke-miterlimit:4;stroke-dasharray:none;stroke-dashoffset:0;stroke-opacity:1;paint-order:markers fill stroke"
       d="m 465.82919,-31.054106 v -55.102"
       id="path4207"
       inkscape:connector-curvature="0"
       inkscape:export-xdpi="177.95041"
       inkscape:export-ydpi="177.95041"
       inkscape:export-filename="C:\Users\Jorge\Desktop\logos\logo 3.png" />
    <path
       inkscape:connector-curvature="0"
       id="path4209"
       d="m 552.717,-31.054106 v -55.102"
       style="opacity:1;vector-effect:none;fill:none;fill-opacity:1;stroke:#c8ced3;stroke-width:5;stroke-linecap:round;stroke-linejoin:miter;stroke-miterlimit:4;stroke-dasharray:none;stroke-dashoffset:0;stroke-opacity:1;paint-order:markers fill stroke"
       inkscape:export-xdpi="177.95041"
       inkscape:export-ydpi="177.95041"
       inkscape:export-filename="C:\Users\Jorge\Desktop\logos\logo 3.png" />
    <path
       style="opacity:1;vector-effect:none;fill:none;fill-opacity:1;stroke:#c8ced3;stroke-width:5;stroke-linecap:round;stroke-linejoin:round;stroke-miterlimit:4;stroke-dasharray:none;stroke-dashoffset:0;stroke-opacity:1;paint-order:markers fill stroke"
       d="m 532.258,-85.810806 -23.25241,54.5866 -22.71789,-55.3518"
       id="path4211"
       inkscape:connector-curvature="0"
       inkscape:export-xdpi="177.95041"
       inkscape:export-ydpi="177.95041"
       inkscape:export-filename="C:\Users\Jorge\Desktop\logos\logo 3.png" />
    <g
       id="g4219"
       transform="translate(4612.1229,-912.74198)"
       style="stroke:#c8ced3;stroke-opacity:1"
       inkscape:export-xdpi="177.95041"
       inkscape:export-ydpi="177.95041"
       inkscape:export-filename="C:\Users\Jorge\Desktop\logos\logo 3.png">
      <path
         inkscape:connector-curvature="0"
         id="path4213"
         d="m -4038.9609,881.68789 v -55.102"
         style="opacity:1;vector-effect:none;fill:none;fill-opacity:1;stroke:#c8ced3;stroke-width:5;stroke-linecap:round;stroke-linejoin:miter;stroke-miterlimit:4;stroke-dasharray:none;stroke-dashoffset:0;stroke-opacity:1;paint-order:markers fill stroke" />
      <path
         inkscape:connector-curvature="0"
         id="path4215"
         d="m -4039.6204,838.2619 c 0,0 31.3719,-28.15923 38.3645,-0.94496 v 44.41223"
         style="opacity:1;vector-effect:none;fill:none;fill-opacity:1;stroke:#c8ced3;stroke-width:0;stroke-linecap:butt;stroke-linejoin:miter;stroke-miterlimit:4;stroke-dasharray:none;stroke-dashoffset:0;stroke-opacity:1;paint-order:markers fill stroke" />
      <path
         inkscape:connector-curvature="0"
         id="path4217"
         d="m -4000.2229,881.51845 v -39.82316 c 0,0 -0.2673,-13.76439 -13.7644,-13.76439 -13.4972,0 -24.4552,9.22081 -24.4552,9.22081"
         style="opacity:1;vector-effect:none;fill:none;fill-opacity:1;stroke:#c8ced3;stroke-width:5;stroke-linecap:round;stroke-linejoin:round;stroke-miterlimit:4;stroke-dasharray:none;stroke-dashoffset:0;stroke-opacity:1;paint-order:markers fill stroke" />
    </g>
    <g
       id="g4225"
       transform="matrix(1.0687212,0,0,1.0668972,4928.6913,-968.86965)"
       style="stroke:#c8ced3;stroke-width:0.93649721;stroke-opacity:1"
       inkscape:export-xdpi="177.95041"
       inkscape:export-ydpi="177.95041"
       inkscape:export-filename="C:\Users\Jorge\Desktop\logos\logo 3.png">
      <path
         inkscape:connector-curvature="0"
         id="path4221"
         d="m -4275.6019,813.84372 c 0,0 -50.6926,-27.91627 -50.6926,29.38075"
         style="opacity:1;vector-effect:none;fill:none;fill-opacity:1;stroke:#c8ced3;stroke-width:4.68248606;stroke-linecap:round;stroke-linejoin:round;stroke-miterlimit:4;stroke-dasharray:none;stroke-dashoffset:0;stroke-opacity:1;paint-order:markers fill stroke" />
      <path
         style="opacity:1;vector-effect:none;fill:none;fill-opacity:1;stroke:#c8ced3;stroke-width:4.68248606;stroke-linecap:round;stroke-linejoin:round;stroke-miterlimit:4;stroke-dasharray:none;stroke-dashoffset:0;stroke-opacity:1;paint-order:markers fill stroke"
         d="m -4275.6019,872.17431 c 0,0 -50.6926,27.91628 -50.6926,-29.38075"
         id="path4223"
         inkscape:connector-curvature="0" />
    </g>
    <g
       id="g4235"
       transform="translate(4609.6908,-912.74198)"
       style="stroke:#c8ced3;stroke-opacity:1"
       inkscape:export-xdpi="177.95041"
       inkscape:export-ydpi="177.95041"
       inkscape:export-filename="C:\Users\Jorge\Desktop\logos\logo 3.png">
      <path
         inkscape:connector-curvature="0"
         id="path4227"
         d="m -3934.5474,825.80855 v 56.29037 c 0,0 0.079,15.11679 -16.6387,17.02803 -16.7168,1.91123 -26.0669,-4.36854 -26.0669,-4.36854"
         style="opacity:1;vector-effect:none;fill:none;fill-opacity:1;stroke:#c8ced3;stroke-width:4.99999952;stroke-linecap:round;stroke-linejoin:miter;stroke-miterlimit:4;stroke-dasharray:none;stroke-dashoffset:0;stroke-opacity:1;paint-order:markers fill stroke" />
      <g
         style="stroke:#c8ced3;stroke-width:1.26257169;stroke-opacity:1"
         transform="matrix(0.80450657,0,0,0.77975505,-496.77422,196.44303)"
         id="g4233">
        <path
           inkscape:connector-curvature="0"
           id="path4229"
           d="m -4275.6019,813.84372 c 0,0 -50.6926,-27.91627 -50.6926,29.38075"
           style="opacity:1;vector-effect:none;fill:none;fill-opacity:1;stroke:#c8ced3;stroke-width:6.31285906;stroke-linecap:round;stroke-linejoin:round;stroke-miterlimit:4;stroke-dasharray:none;stroke-dashoffset:0;stroke-opacity:1;paint-order:markers fill stroke" />
        <path
           style="opacity:1;vector-effect:none;fill:none;fill-opacity:1;stroke:#c8ced3;stroke-width:6.31285906;stroke-linecap:round;stroke-linejoin:round;stroke-miterlimit:4;stroke-dasharray:none;stroke-dashoffset:0;stroke-opacity:1;paint-order:markers fill stroke"
           d="m -4275.6019,872.17431 c 0,0 -50.6926,27.91628 -50.6926,-29.38075"
           id="path4231"
           inkscape:connector-curvature="0" />
      </g>
    </g>
    <ellipse
       style="opacity:1;fill:none;fill-opacity:1;fill-rule:nonzero;stroke:#c8ced3;stroke-width:5;stroke-linecap:round;stroke-linejoin:round;stroke-miterlimit:4;stroke-dasharray:none;stroke-dashoffset:0;stroke-opacity:1;paint-order:stroke fill markers"
       id="ellipse4237"
       cx="402.34119"
       cy="-58.60508"
       rx="22.598185"
       ry="27.592262"
       inkscape:export-xdpi="177.95041"
       inkscape:export-ydpi="177.95041"
       inkscape:export-filename="C:\Users\Jorge\Desktop\logos\logo 3.png" />
    <path
       style="opacity:1;fill:#c8ced3;fill-opacity:1;fill-rule:nonzero;stroke:none;stroke-width:10.66229534;stroke-linecap:round;stroke-linejoin:miter;stroke-miterlimit:4;stroke-dasharray:none;stroke-dashoffset:0;stroke-opacity:1"
       d="m 318.4513,102.77159 c -12.94921,0 -180.43152,96.69589 -186.90593,107.9102 -6.47449,11.21439 -6.47449,204.60611 0,215.8206 6.47441,11.21421 173.95672,107.90992 186.90593,107.90992 12.94918,0 180.43128,-96.69571 186.90579,-107.90992 6.47488,-11.21449 6.47488,-204.60621 0,-215.8206 -6.47451,-11.21431 -173.95661,-107.9102 -186.90579,-107.9102 z m -59.9159,66.2279 a 2.4840467,2.4840467 0 0 1 0.73757,0.083 l 121.2705,32.49451 a 2.4840467,2.4840467 0 0 1 1.113,0.6426 l 91.63791,91.63889 a 2.4840467,2.4840467 0 0 1 -2.39998,4.1557 l -23.81962,-6.38289 a 2.4840467,2.4840467 0 0 1 -1.11469,-0.64262 l -70.5812,-70.583 -99.8728,99.87391 a 2.4840467,2.4840467 0 0 1 -2.2945,0.669 L 210.55278,307.03198 V 416.15491 L 327.2456,447.4239 445.07059,415.8508 v -20.2324 a 2.4840467,2.4840467 0 1 1 4.96739,0 v 22.13869 a 2.4840467,2.4840467 0 0 1 -1.8401,2.3994 l -120.30821,32.2375 a 2.4840467,2.4840467 0 0 1 -1.28688,0 l -119.1773,-31.93468 a 2.4840467,2.4840467 0 0 1 -1.84031,-2.3999 V 303.9353 a 2.4840467,2.4840467 0 0 1 3.02181,-2.42451 l 64.35039,14.29211 100.66589,-100.66581 a 2.4840467,2.4840467 0 0 1 3.51282,0 l 71.86679,71.86832 14.22511,3.81098 -84.61261,-84.6137 -118.7857,-31.82991 -72.048,124.79211 a 2.4840467,2.4840467 0 1 1 -4.30159,-2.48409 l 73.00018,-126.4416 a 2.4840467,2.4840467 0 0 1 2.05513,-1.2401 z m 76.9239,131.59661 c 14.14248,0.036 27.47078,7.51409 27.47078,7.51409 a 2.4844905,2.4844905 0 0 1 -2.39411,4.35419 c 0,0 -13.15638,-7.07758 -25.67889,-6.897 -6.26121,0.09 -12.15761,1.85431 -16.6701,7.01112 -4.48929,5.13 -7.7601,13.94539 -7.79389,28.624 0.033,14.67829 3.30489,23.49349 7.79389,28.6235 4.51249,5.1567 10.40889,6.92038 16.6701,7.01069 12.52251,0.1805 25.67889,-6.897 25.67889,-6.897 a 2.4844751,2.4844751 0 0 1 2.39411,4.35411 c 0,0 -13.75471,7.7183 -28.14478,7.5107 -7.19522,-0.10361 -14.75632,-2.3305 -20.33612,-8.70669 -5.5114,-6.29841 -8.9381,-16.32741 -9.02128,-31.55752 a 2.4840467,2.4840467 0 0 1 -0.014,-0.1102 c 0,-0.076 0,-0.15129 0,-0.22759 -8e-5,-0.076 0,-0.15121 0,-0.22799 a 2.4840467,2.4840467 0 0 1 0.014,-0.1102 c 0.084,-15.23011 3.50999,-25.2594 9.02128,-31.55762 5.5798,-6.3763 13.1409,-8.6029 20.33612,-8.70681 0.22479,0 0.44939,-0.014 0.674,0 z m 111.7981,0.0201 a 2.4840467,2.4840467 0 0 1 2.52108,2.5183 v 76.23249 a 2.4840467,2.4840467 0 1 1 -4.96761,0 V 303.1345 a 2.4840467,2.4840467 0 0 1 2.44653,-2.5183 z m -42.72751,21.4812 c 14.03868,0 24.9356,13.65679 24.93578,29.89609 -1.8e-4,16.2396 -10.8971,29.8975 -24.93578,29.8975 -14.03861,0 -24.93561,-13.6579 -24.93561,-29.8975 0,-16.2393 10.897,-29.89609 24.93561,-29.89609 z m 0,4.9675 c -10.76071,0 -19.96811,10.888 -19.96811,24.92859 0,14.0407 9.2074,24.93 19.96811,24.93 10.76078,-1.1e-4 19.96821,-10.88941 19.96821,-24.93 0,-14.04059 -9.20743,-24.92859 -19.96821,-24.92859 z"
       id="path3966"
       inkscape:connector-curvature="0"
       inkscape:export-xdpi="204.25188"
       inkscape:export-ydpi="204.25188"
       inkscape:export-filename="C:\Users\Jorge\Desktop\logos\logo 4.png" />
    <path
       inkscape:export-filename="C:\Users\Jorge\Desktop\logos\logo 1.png"
       inkscape:export-ydpi="177.95041"
       inkscape:export-xdpi="177.95041"
       style="opacity:1;vector-effect:none;fill:none;fill-opacity:1;stroke:#20a8d8;stroke-width:5;stroke-linecap:round;stroke-linejoin:round;stroke-miterlimit:4;stroke-dasharray:none;stroke-dashoffset:0;stroke-opacity:1;paint-order:stroke fill markers"
       d="m -413.67662,-113.02651 73.476,-127.2668 122.061,32.7068 92.23501,92.2369 -23.97631,-6.4246 -72.8097,-72.8111 -102.2917,102.294004 -66.1105,-14.683804 V 7.8940938 l 119.9554,32.1427002 121.0931,-32.4475002 V -14.693606"
       id="path4308"
       inkscape:connector-curvature="0"
       sodipodi:nodetypes="cccccccccccc" />
    <path
       inkscape:export-filename="C:\Users\Jorge\Desktop\logos\logo 1.png"
       inkscape:export-ydpi="177.95041"
       inkscape:export-xdpi="177.95041"
       style="opacity:1;vector-effect:none;fill:none;fill-opacity:1;stroke:#20a8d8;stroke-width:5;stroke-linecap:round;stroke-linejoin:miter;stroke-miterlimit:4;stroke-dasharray:none;stroke-dashoffset:0;stroke-opacity:1;paint-order:markers fill stroke"
       d="M -150.30613,-31.054106 V -107.78321"
       id="path4310"
       inkscape:connector-curvature="0" />
    <path
       inkscape:export-filename="C:\Users\Jorge\Desktop\logos\logo 1.png"
       inkscape:export-ydpi="177.95041"
       inkscape:export-xdpi="177.95041"
       inkscape:connector-curvature="0"
       id="path4312"
       d="m -129.86111,-31.054106 v -55.102"
       style="opacity:1;vector-effect:none;fill:none;fill-opacity:1;stroke:#20a8d8;stroke-width:5;stroke-linecap:round;stroke-linejoin:miter;stroke-miterlimit:4;stroke-dasharray:none;stroke-dashoffset:0;stroke-opacity:1;paint-order:markers fill stroke" />
    <path
       inkscape:export-filename="C:\Users\Jorge\Desktop\logos\logo 1.png"
       inkscape:export-ydpi="177.95041"
       inkscape:export-xdpi="177.95041"
       style="opacity:1;vector-effect:none;fill:none;fill-opacity:1;stroke:#20a8d8;stroke-width:5;stroke-linecap:round;stroke-linejoin:miter;stroke-miterlimit:4;stroke-dasharray:none;stroke-dashoffset:0;stroke-opacity:1;paint-order:markers fill stroke"
       d="m -42.973316,-31.054106 v -55.102"
       id="path4314"
       inkscape:connector-curvature="0" />
    <path
       inkscape:export-filename="C:\Users\Jorge\Desktop\logos\logo 1.png"
       inkscape:export-ydpi="177.95041"
       inkscape:export-xdpi="177.95041"
       inkscape:connector-curvature="0"
       id="path4316"
       d="m -63.432326,-85.810806 -23.25238,54.5866 -22.717924,-55.3518"
       style="opacity:1;vector-effect:none;fill:none;fill-opacity:1;stroke:#20a8d8;stroke-width:5;stroke-linecap:round;stroke-linejoin:round;stroke-miterlimit:4;stroke-dasharray:none;stroke-dashoffset:0;stroke-opacity:1;paint-order:markers fill stroke" />
    <g
       inkscape:export-filename="C:\Users\Jorge\Desktop\logos\logo 1.png"
       inkscape:export-ydpi="177.95041"
       inkscape:export-xdpi="177.95041"
       style="stroke:#20a8d8;stroke-opacity:1"
       transform="translate(4016.4326,-912.74198)"
       id="g4324">
      <path
         style="opacity:1;vector-effect:none;fill:none;fill-opacity:1;stroke:#20a8d8;stroke-width:5;stroke-linecap:round;stroke-linejoin:miter;stroke-miterlimit:4;stroke-dasharray:none;stroke-dashoffset:0;stroke-opacity:1;paint-order:markers fill stroke"
         d="m -4038.9609,881.68789 v -55.102"
         id="path4318"
         inkscape:connector-curvature="0" />
      <path
         style="opacity:1;vector-effect:none;fill:none;fill-opacity:1;stroke:#20a8d8;stroke-width:0;stroke-linecap:butt;stroke-linejoin:miter;stroke-miterlimit:4;stroke-dasharray:none;stroke-dashoffset:0;stroke-opacity:1;paint-order:markers fill stroke"
         d="m -4039.6204,838.2619 c 0,0 31.3719,-28.15923 38.3645,-0.94496 v 44.41223"
         id="path4320"
         inkscape:connector-curvature="0" />
      <path
         style="opacity:1;vector-effect:none;fill:none;fill-opacity:1;stroke:#20a8d8;stroke-width:5;stroke-linecap:round;stroke-linejoin:round;stroke-miterlimit:4;stroke-dasharray:none;stroke-dashoffset:0;stroke-opacity:1;paint-order:markers fill stroke"
         d="m -4000.2229,881.51845 v -39.82316 c 0,0 -0.2673,-13.76439 -13.7644,-13.76439 -13.4972,0 -24.4552,9.22081 -24.4552,9.22081"
         id="path4322"
         inkscape:connector-curvature="0" />
    </g>
    <g
       inkscape:export-filename="C:\Users\Jorge\Desktop\logos\logo 1.png"
       inkscape:export-ydpi="177.95041"
       inkscape:export-xdpi="177.95041"
       style="stroke:#20a8d8;stroke-width:0.93649721;stroke-opacity:1"
       transform="matrix(1.0687212,0,0,1.0668972,4333.001,-968.86965)"
       id="g4330">
      <path
         style="opacity:1;vector-effect:none;fill:none;fill-opacity:1;stroke:#20a8d8;stroke-width:4.68248606;stroke-linecap:round;stroke-linejoin:round;stroke-miterlimit:4;stroke-dasharray:none;stroke-dashoffset:0;stroke-opacity:1;paint-order:markers fill stroke"
         d="m -4275.6019,813.84372 c 0,0 -50.6926,-27.91627 -50.6926,29.38075"
         id="path4326"
         inkscape:connector-curvature="0" />
      <path
         inkscape:connector-curvature="0"
         id="path4328"
         d="m -4275.6019,872.17431 c 0,0 -50.6926,27.91628 -50.6926,-29.38075"
         style="opacity:1;vector-effect:none;fill:none;fill-opacity:1;stroke:#20a8d8;stroke-width:4.68248606;stroke-linecap:round;stroke-linejoin:round;stroke-miterlimit:4;stroke-dasharray:none;stroke-dashoffset:0;stroke-opacity:1;paint-order:markers fill stroke" />
    </g>
    <g
       inkscape:export-filename="C:\Users\Jorge\Desktop\logos\logo 1.png"
       inkscape:export-ydpi="177.95041"
       inkscape:export-xdpi="177.95041"
       style="stroke:#20a8d8;stroke-opacity:1"
       transform="translate(4014.0005,-912.74198)"
       id="g4340">
      <path
         style="opacity:1;vector-effect:none;fill:none;fill-opacity:1;stroke:#20a8d8;stroke-width:4.99999952;stroke-linecap:round;stroke-linejoin:miter;stroke-miterlimit:4;stroke-dasharray:none;stroke-dashoffset:0;stroke-opacity:1;paint-order:markers fill stroke"
         d="m -3934.5474,825.80855 v 56.29037 c 0,0 0.079,15.11679 -16.6387,17.02803 -16.7168,1.91123 -26.0669,-4.36854 -26.0669,-4.36854"
         id="path4332"
         inkscape:connector-curvature="0" />
      <g
         id="g4338"
         transform="matrix(0.80450657,0,0,0.77975505,-496.77422,196.44303)"
         style="stroke:#20a8d8;stroke-width:1.26257169;stroke-opacity:1">
        <path
           style="opacity:1;vector-effect:none;fill:none;fill-opacity:1;stroke:#20a8d8;stroke-width:6.31285906;stroke-linecap:round;stroke-linejoin:round;stroke-miterlimit:4;stroke-dasharray:none;stroke-dashoffset:0;stroke-opacity:1;paint-order:markers fill stroke"
           d="m -4275.6019,813.84372 c 0,0 -50.6926,-27.91627 -50.6926,29.38075"
           id="path4334"
           inkscape:connector-curvature="0" />
        <path
           inkscape:connector-curvature="0"
           id="path4336"
           d="m -4275.6019,872.17431 c 0,0 -50.6926,27.91628 -50.6926,-29.38075"
           style="opacity:1;vector-effect:none;fill:none;fill-opacity:1;stroke:#20a8d8;stroke-width:6.31285906;stroke-linecap:round;stroke-linejoin:round;stroke-miterlimit:4;stroke-dasharray:none;stroke-dashoffset:0;stroke-opacity:1;paint-order:markers fill stroke" />
      </g>
    </g>
    <ellipse
       inkscape:export-filename="C:\Users\Jorge\Desktop\logos\logo 1.png"
       inkscape:export-ydpi="177.95041"
       inkscape:export-xdpi="177.95041"
       ry="27.592262"
       rx="22.598185"
       cy="-58.60508"
       cx="-193.34927"
       id="ellipse4342"
       style="opacity:1;fill:none;fill-opacity:1;fill-rule:nonzero;stroke:#20a8d8;stroke-width:5;stroke-linecap:round;stroke-linejoin:round;stroke-miterlimit:4;stroke-dasharray:none;stroke-dashoffset:0;stroke-opacity:1;paint-order:stroke fill markers" />
    <path
       inkscape:export-filename="C:\Users\Jorge\Desktop\logos\logo 2.png"
       inkscape:export-ydpi="71.791214"
       inkscape:export-xdpi="71.791214"
       inkscape:connector-curvature="0"
       id="path4344"
       d="m -277.23902,102.77159 c -12.9492,0 -180.4315,96.69589 -186.9059,107.9102 -6.4745,11.21439 -6.4745,204.60611 0,215.8206 6.4744,11.21421 173.9567,107.90992 186.9059,107.90992 12.9492,0 180.431304,-96.69571 186.905814,-107.90992 6.47489,-11.21449 6.47489,-204.60621 0,-215.8206 -6.47451,-11.21431 -173.956614,-107.9102 -186.905814,-107.9102 z m -59.9159,66.2279 a 2.4840467,2.4840467 0 0 1 0.7376,0.083 l 121.2705,32.49451 a 2.4840467,2.4840467 0 0 1 1.113,0.6426 l 91.6379,91.63889 a 2.4840467,2.4840467 0 0 1 -2.40001,4.1557 l -23.81959,-6.38289 a 2.4840467,2.4840467 0 0 1 -1.11469,-0.64262 l -70.58121,-70.583 -99.8728,99.87391 a 2.4840467,2.4840467 0 0 1 -2.2945,0.669 l -62.6588,-13.91661 v 109.12293 l 116.6928,31.26899 117.82501,-31.5731 v -20.2324 a 2.4840467,2.4840467 0 1 1 4.96739,0 v 22.13869 a 2.4840467,2.4840467 0 0 1 -1.8401,2.3994 l -120.3082,32.2375 a 2.4840467,2.4840467 0 0 1 -1.2869,0 l -119.1773,-31.93468 a 2.4840467,2.4840467 0 0 1 -1.8403,-2.3999 V 303.9353 a 2.4840467,2.4840467 0 0 1 3.0218,-2.42451 l 64.3504,14.29211 100.6659,-100.66581 a 2.4840467,2.4840467 0 0 1 3.5128,0 l 71.8668,71.86832 14.22511,3.81098 -84.61261,-84.6137 -118.7857,-31.82991 -72.048,124.79211 a 2.4840467,2.4840467 0 1 1 -4.3016,-2.48409 l 73.0002,-126.4416 a 2.4840467,2.4840467 0 0 1 2.0551,-1.2401 z m 76.9239,131.59661 c 14.1425,0.036 27.4708,7.51409 27.4708,7.51409 a 2.4844905,2.4844905 0 0 1 -2.3941,4.35419 c 0,0 -13.1564,-7.07758 -25.6789,-6.897 -6.2612,0.09 -12.1576,1.85431 -16.6701,7.01112 -4.4893,5.13 -7.7601,13.94539 -7.7939,28.624 0.033,14.67829 3.3049,23.49349 7.7939,28.6235 4.5125,5.1567 10.4089,6.92038 16.6701,7.01069 12.5225,0.1805 25.6789,-6.897 25.6789,-6.897 a 2.4844751,2.4844751 0 0 1 2.3941,4.35411 c 0,0 -13.7547,7.7183 -28.1448,7.5107 -7.1952,-0.10361 -14.7563,-2.3305 -20.3361,-8.70669 -5.5114,-6.29841 -8.9381,-16.32741 -9.0213,-31.55752 a 2.4840467,2.4840467 0 0 1 -0.014,-0.1102 c 0,-0.076 0,-0.15129 0,-0.22759 -1e-4,-0.076 0,-0.15121 0,-0.22799 a 2.4840467,2.4840467 0 0 1 0.014,-0.1102 c 0.084,-15.23011 3.51,-25.2594 9.0213,-31.55762 5.5798,-6.3763 13.1409,-8.6029 20.3361,-8.70681 0.2248,0 0.4494,-0.014 0.674,0 z m 111.79809,0.0201 a 2.4840467,2.4840467 0 0 1 2.52111,2.5183 v 76.23249 a 2.4840467,2.4840467 0 1 1 -4.96761,0 V 303.1345 a 2.4840467,2.4840467 0 0 1 2.4465,-2.5183 z m -42.72748,21.4812 c 14.03868,0 24.9356,13.65679 24.93579,29.89609 -1.9e-4,16.2396 -10.89711,29.8975 -24.93579,29.8975 -14.03861,0 -24.93561,-13.6579 -24.93561,-29.8975 0,-16.2393 10.897,-29.89609 24.93561,-29.89609 z m 0,4.9675 c -10.76071,0 -19.96811,10.888 -19.96811,24.92859 0,14.0407 9.2074,24.93 19.96811,24.93 10.76079,-1.1e-4 19.96818,-10.88941 19.96818,-24.93 0,-14.04059 -9.20739,-24.92859 -19.96818,-24.92859 z"
       style="opacity:1;fill:#20a8d8;fill-opacity:1;fill-rule:nonzero;stroke:none;stroke-width:10.66229534;stroke-linecap:round;stroke-linejoin:miter;stroke-miterlimit:4;stroke-dasharray:none;stroke-dashoffset:0;stroke-opacity:1" />
  </g>
</svg>
